<?xml version="1.0" encoding="utf-8"?>
<!-- Uploaded to: SVG Repo, www.svgrepo.com, Generator: SVG Repo Mixer Tools -->
<svg version="1.1" id="Uploaded to svgrepo.com" xmlns="http://www.w3.org/2000/svg" xmlns:xlink="http://www.w3.org/1999/xlink" 
	 width="800px" height="800px" viewBox="0 0 32 32" xml:space="preserve">
<style type="text/css">
	.flatshadows_een{fill:#FDFFFF;}
	.flatshadows_twee{fill:#E1E5E5;}
	.flatshadows_drie{fill:#C4CCCC;}
	.flatshadows_vier{fill:#A3AFAF;}
	.st0{fill:#FFFFFF;}
	.st1{fill:#8D9999;}
</style>
<g>
	<path class="st0" d="M4,17H3c-0.552,0-1-0.448-1-1v0c0-0.552,0.448-1,1-1h1V17z"/>
	<path class="st0" d="M28,15h1c0.552,0,1,0.448,1,1v0c0,0.552-0.448,1-1,1h-1V15z"/>
	<path class="flatshadows_vier" d="M6,17H3c-0.552,0-1-0.448-1-1v0c0-0.552,0.448-1,1-1h3V17z M26,17h3c0.552,0,1-0.448,1-1v0
		c0-0.552-0.448-1-1-1h-3V17z M23.778,9.636l2.121-2.121c0.391-0.391,0.391-1.024,0-1.414l0,0c-0.391-0.391-1.024-0.391-1.414,0
		l-2.121,2.121L23.778,9.636z M17,26v3c0,0.552-0.448,1-1,1h0c-0.552,0-1-0.448-1-1v-3H17z M17,6V3c0-0.552-0.448-1-1-1h0
		c-0.552,0-1,0.448-1,1v3H17z M23.778,22.364l2.121,2.121c0.391,0.391,0.391,1.024,0,1.414l0,0c-0.391,0.391-1.024,0.391-1.414,0
		l-2.121-2.121L23.778,22.364z M9.636,8.222L7.515,6.101c-0.391-0.391-1.024-0.391-1.414,0l0,0c-0.391,0.391-0.391,1.024,0,1.414
		l2.121,2.121L9.636,8.222z"/>
	<circle class="flatshadows_een" cx="16" cy="16" r="12"/>
	<path class="flatshadows_twee" d="M16.707,15.293L7.562,24.25l-0.081,0.199C9.656,26.641,12.669,28,16,28
		c3.674,0,6.957-1.655,9.159-4.256L16.707,15.293z"/>
	<path class="flatshadows_drie" d="M29.707,22.293l-1.596-1.596C28.677,19.239,29,17.659,29,16c0-7.18-5.82-13-13-13S3,8.82,3,16
		c0,3.23,1.185,6.178,3.134,8.452l-2.841,2.841c-0.391,0.391-0.391,1.023,0,1.414C3.488,28.902,3.744,29,4,29
		s0.512-0.098,0.707-0.293l2.841-2.841C9.822,27.815,12.77,29,16,29c4.767,0,8.923-2.574,11.186-6.4l1.107,1.107
		C28.488,23.902,28.744,24,29,24s0.512-0.098,0.707-0.293C30.098,23.316,30.098,22.684,29.707,22.293z M16,28
		c-2.954,0-5.654-1.072-7.745-2.841l8.452-8.452c0.391-0.391,0.391-1.023,0-1.414s-1.023-0.391-1.414,0l-8.452,8.452
		C5.072,21.654,4,18.954,4,16C4,9.373,9.373,4,16,4s12,5.373,12,12c0,1.374-0.242,2.689-0.668,3.918l-9.625-9.625
		c-0.391-0.391-1.023-0.391-1.414,0s-0.391,1.023,0,1.414l10.166,10.166C24.402,25.527,20.492,28,16,28z"/>
</g>
</svg>