<?xml version="1.0" encoding="iso-8859-1"?>
<!-- Uploaded to: SVG Repo, www.svgrepo.com, Generator: SVG Repo Mixer Tools -->
<svg fill="#000000" height="800px" width="800px" version="1.1" id="Layer_1" xmlns="http://www.w3.org/2000/svg" xmlns:xlink="http://www.w3.org/1999/xlink" 
	 viewBox="0 0 512 512" xml:space="preserve">
<g>
	<g>
		<path d="M195.098,38.4C187.172,16.052,165.83,0,140.8,0c-31.761,0-57.6,25.839-57.6,57.6c0,31.761,25.839,57.6,57.6,57.6
			c25.03,0,46.372-16.052,54.298-38.4H428.8V38.4H195.098z M140.8,76.8c-10.587,0-19.2-8.613-19.2-19.2
			c0-10.587,8.613-19.2,19.2-19.2c10.587,0,19.2,8.613,19.2,19.2C160,68.187,151.387,76.8,140.8,76.8z"/>
	</g>
</g>
<g>
	<g>
		<path d="M371.2,115.2c-25.03,0-46.372,16.052-54.298,38.4H83.2V192h233.702c7.926,22.348,29.267,38.4,54.298,38.4
			c31.761,0,57.6-25.839,57.6-57.6C428.8,141.039,402.961,115.2,371.2,115.2z M371.2,192c-10.587,0-19.2-8.613-19.2-19.2
			s8.613-19.2,19.2-19.2c10.587,0,19.2,8.613,19.2,19.2S381.787,192,371.2,192z"/>
	</g>
</g>
<g>
	<g>
		<path d="M57.6,268.8V384h25.6v128h345.6V384h25.6V268.8H57.6z M390.4,473.6H121.6V384h268.8V473.6z M416,345.6H96v-38.4h320V345.6
			z"/>
	</g>
</g>
</svg>